<svg width="32" height="32" viewBox="0 0 32 32" fill="none" xmlns="http://www.w3.org/2000/svg">
<g id=".32px / Step / Fail big">
<path id="Subtract" fill-rule="evenodd" clip-rule="evenodd" d="M12.0638 6.49731C13.3117 5.9804 14.6492 5.71436 15.9999 5.71436C17.3507 5.71436 18.6882 5.9804 19.9361 6.49731C21.184 7.01421 22.3179 7.77185 23.273 8.72697C24.2282 9.68209 24.9858 10.816 25.5027 12.0639C26.0196 13.3118 26.2857 14.6493 26.2857 16.0001C26.2857 18.728 25.202 21.3442 23.273 23.2732C21.3441 25.2021 18.7279 26.2858 15.9999 26.2858C14.6492 26.2858 13.3117 26.0197 12.0638 25.5028C10.8159 24.9859 9.68197 24.2283 8.72685 23.2732C6.7979 21.3442 5.71423 18.728 5.71423 16.0001C5.71423 13.2721 6.7979 10.6559 8.72685 8.72697C9.68197 7.77185 10.8159 7.01421 12.0638 6.49731ZM20.5714 11.4287C21.0191 11.8764 21.0191 12.6022 20.5714 13.05L17.6441 15.9773L20.5714 18.9502C21.0191 19.3979 21.0191 20.1238 20.5714 20.5715C20.1237 21.0192 19.3978 21.0192 18.9501 20.5715L16.0228 17.5986L13.0498 20.5715C12.6021 21.0192 11.8762 21.0192 11.4285 20.5715C10.9808 20.1238 10.9808 19.3979 11.4285 18.9502L14.4015 15.9773L11.4285 13.05C10.9808 12.6022 10.9808 11.8764 11.4285 11.4287C11.8762 10.981 12.6021 10.981 13.0498 11.4287L16.0228 14.356L18.9501 11.4287C19.3978 10.981 20.1237 10.981 20.5714 11.4287Z" fill="#FF4D4F"/>
</g>
</svg>
