<svg width="29" height="28" viewBox="0 0 29 28" fill="none" xmlns="http://www.w3.org/2000/svg">
<g id=".28px / Notification On">
<path id="Union" fill-rule="evenodd" clip-rule="evenodd" d="M14.5 5C15.0523 5 15.5 5.44772 15.5 6V7.08205C17.959 7.48927 19.967 9.37438 20.478 11.8832L21.3885 16.353C23.3346 17.7012 22.474 21 19.8841 21H18.374C17.9299 22.7252 16.3638 24 14.5 24C12.6362 24 11.0701 22.7252 10.626 21H9.11568C6.52595 21 5.6653 17.7015 7.61102 16.3531L8.52156 11.8832C9.03265 9.37424 11.0408 7.48905 13.5 7.08198V6C13.5 5.44772 13.9477 5 14.5 5ZM12.7676 21C13.1134 21.5978 13.7597 22 14.5 22C15.2403 22 15.8866 21.5978 16.2324 21H12.7676ZM14.4998 9C12.5504 9 10.8704 10.3723 10.4813 12.2824L9.48377 17.1795C9.42493 17.5014 9.20954 17.7838 8.89383 17.9191C8.33089 18.1604 8.50324 19 9.11568 19H19.8841C20.493 19 20.6669 18.1701 20.1157 17.9234C19.8168 17.799 19.5878 17.5328 19.5199 17.1996L18.5183 12.2824C18.1292 10.3723 16.4492 9 14.4998 9Z" fill="#662EFF"/>
</g>
</svg>
